<?xml version="1.0" encoding="utf-8"?>
<!-- Generator: Adobe Illustrator 25.4.1, SVG Export Plug-In . SVG Version: 6.00 Build 0)  -->
<svg version="1.1" id="Layer_1" xmlns="http://www.w3.org/2000/svg" xmlns:xlink="http://www.w3.org/1999/xlink" x="0px" y="0px"
	 viewBox="0 0 16 16" style="enable-background:new 0 0 16 16;" xml:space="preserve">
<style type="text/css">
	.st0{fill:#FF8811;}
</style>
<path class="st0" d="M15.06,0H0.94C0.42,0,0,0.42,0,0.94v14.12C0,15.58,0.42,16,0.94,16h14.12c0.52,0,0.94-0.42,0.94-0.94V0.94
	C16,0.42,15.58,0,15.06,0z M14.59,3.82c0,0.07-0.05,0.12-0.12,0.12H9.4C9.33,3.94,9.28,4,9.28,4.06v2.29c0,0.07,0.05,0.12,0.12,0.12
	h5.07c0.07,0,0.12,0.05,0.12,0.12v2.17c0,0.07-0.05,0.12-0.12,0.12H9.4c-0.07,0-0.12,0.05-0.12,0.12v5.33
	c0,0.07-0.05,0.12-0.12,0.12H7.11c-0.07,0-0.12-0.05-0.12-0.12V9.02c0-0.07-0.05-0.12-0.12-0.12H6.28c-0.07,0-0.12,0.05-0.12,0.12
	v5.33c0,0.07-0.05,0.12-0.12,0.12H3.99c-0.07,0-0.12-0.05-0.12-0.12V8.89V6.48V4.17c0-0.09-0.09-0.15-0.17-0.11L1.68,4.96
	C1.6,5,1.51,4.94,1.51,4.85l-0.1-2.17c0-0.05,0.03-0.1,0.07-0.12l2.38-1.03v0h2.17c0.07,0,0.12,0.05,0.12,0.12v4.71
	c0,0.07,0.05,0.12,0.12,0.12h0.59c0.07,0,0.12-0.05,0.12-0.12V3.94V1.65c0-0.07,0.05-0.12,0.12-0.12h2.17h5.19
	c0.07,0,0.12,0.05,0.12,0.12V3.82z"/>
</svg>
